<?xml version="1.0" encoding="UTF-8" standalone="no" ?>
<!DOCTYPE svg PUBLIC "-//W3C//DTD SVG 1.1//EN" "http://www.w3.org/Graphics/SVG/1.1/DTD/svg11.dtd">
<svg xmlns="http://www.w3.org/2000/svg" xmlns:xlink="http://www.w3.org/1999/xlink" version="1.1" width="200" height="200" viewBox="0 0 200 200" xml:space="preserve">
<desc>Created with Fabric.js 4.6.0</desc>
<defs>
</defs>
<g transform="matrix(0.77 0 0 0.12 101 69.5)" id="rGd9dweGcM8T2fS1E9V9I"  >
<path style="stroke: rgb(36,110,45); stroke-width: 0; stroke-dasharray: none; stroke-linecap: butt; stroke-dashoffset: 0; stroke-linejoin: miter; stroke-miterlimit: 4; fill: rgb(49,168,247); fill-rule: nonzero; opacity: 1;" vector-effect="non-scaling-stroke"  transform=" translate(0, 0)" d="M -131 -69.23726 C -131 -103.34788 -126.73525 -131 -121.4744 -131 L 121.47441 -131 L 121.47441 -131 C 126.73525000000001 -131 131.00001 -103.34788 131.00001 -69.23725999999999 L 131.00001 69.23726000000002 L 131.00001 69.23726000000002 C 131.00001 103.34788000000002 126.73526 131.00000000000003 121.47441 131.00000000000003 L -121.4744 131.00000000000003 L -121.4744 131.00000000000003 C -126.73524 131.00000000000003 -131 103.34788000000003 -131 69.23726000000002 z" stroke-linecap="round" />
</g>
<g transform="matrix(0.77 0 0 0.12 100 127.5)" id="rNJAkOvy9gKZAdZY33qr3"  >
<path style="stroke: rgb(36,110,45); stroke-width: 0; stroke-dasharray: none; stroke-linecap: butt; stroke-dashoffset: 0; stroke-linejoin: miter; stroke-miterlimit: 4; fill: rgb(49,168,247); fill-rule: nonzero; opacity: 1;" vector-effect="non-scaling-stroke"  transform=" translate(0, 0)" d="M -131 -69.23726 C -131 -103.34788 -126.73525 -131 -121.4744 -131 L 121.47441 -131 L 121.47441 -131 C 126.73525000000001 -131 131.00001 -103.34788 131.00001 -69.23725999999999 L 131.00001 69.23726000000002 L 131.00001 69.23726000000002 C 131.00001 103.34788000000002 126.73526 131.00000000000003 121.47441 131.00000000000003 L -121.4744 131.00000000000003 L -121.4744 131.00000000000003 C -126.73524 131.00000000000003 -131 103.34788000000003 -131 69.23726000000002 z" stroke-linecap="round" />
</g>
</svg>