<?xml version="1.0" encoding="UTF-8" standalone="no" ?>
<!DOCTYPE svg PUBLIC "-//W3C//DTD SVG 1.1//EN" "http://www.w3.org/Graphics/SVG/1.1/DTD/svg11.dtd">
<svg xmlns="http://www.w3.org/2000/svg" xmlns:xlink="http://www.w3.org/1999/xlink" version="1.1" width="200" height="200" viewBox="0 0 200 200" xml:space="preserve">
<desc>Created with Fabric.js 4.6.0</desc>
<defs>
</defs>
<g transform="matrix(0.48 0 0 0.48 46 103)" id="5iHMyoJM8mNWOXXW_gesj"  >
<path style="stroke: rgb(56,224,18); stroke-width: 0; stroke-dasharray: none; stroke-linecap: butt; stroke-dashoffset: 0; stroke-linejoin: miter; stroke-miterlimit: 4; fill: rgb(210,113,255); fill-rule: nonzero; opacity: 1;" vector-effect="non-scaling-stroke"  transform=" translate(0, 0)" d="M 0 -64.5 C 35.604 -64.5 64.5 -35.604 64.5 0 C 64.5 35.604 35.604 64.5 0 64.5 C -35.604 64.5 -64.5 35.604 -64.5 0 C -64.5 -35.604 -35.604 -64.5 0 -64.5 z" stroke-linecap="round" />
</g>
<g transform="matrix(0.48 0 0 -0.09 47 127)" id="W2ZeNqMw8qnOSyl8LKr1U"  >
<path style="stroke: rgb(214,225,66); stroke-width: 0; stroke-dasharray: none; stroke-linecap: butt; stroke-dashoffset: 0; stroke-linejoin: miter; stroke-miterlimit: 4; fill: rgb(192,58,255); fill-rule: nonzero; opacity: 1;" vector-effect="non-scaling-stroke"  transform=" translate(0, 0)" d="M -67 66.76121 C -67 -7.113069999999993 -55.7712 -67 -41.91977 -67 L 41.91977 -67 L 41.91977 -67 C 55.7712 -67 67 -7.1130700000000004 67 66.76121 L 67 66.99999000000001 L -66.99999 66.99999000000001 z" stroke-linecap="round" />
</g>
<g transform="matrix(0.48 0 0 0.48 32 93)" id="oT_1tJpDhIKoEmAoksjcT"  >
<path style="stroke: rgb(192,58,255); stroke-width: 5; stroke-dasharray: none; stroke-linecap: butt; stroke-dashoffset: 0; stroke-linejoin: miter; stroke-miterlimit: 4; fill: none; fill-rule: nonzero; opacity: 1;" vector-effect="non-scaling-stroke"  transform=" translate(0, 0)" d="M -33.68384 62.69565 C 55.20505000000001 -100.55221 30.542970000000004 -57.585629999999995 30.542970000000004 -57.585629999999995" stroke-linecap="round" />
</g>
<g transform="matrix(-0.47 0 0 0.48 62 92.5)" id="_PzCKhP9t8KOXbqqMUt1E"  >
<path style="stroke: rgb(192,58,255); stroke-width: 5; stroke-dasharray: none; stroke-linecap: butt; stroke-dashoffset: 0; stroke-linejoin: miter; stroke-miterlimit: 4; fill: none; fill-rule: nonzero; opacity: 1;" vector-effect="non-scaling-stroke"  transform=" translate(0, 0)" d="M -31.76351 61.77955 C 57.12538000000001 -101.46831 26.761010000000002 -55.943479999999994 26.761010000000002 -55.943479999999994" stroke-linecap="round" />
</g>
<g transform="matrix(0.37 0 0 0.37 160 79)" id="tQHLo52LrMFFXYpTyQJLN"  >
<path style="stroke: rgb(56,224,18); stroke-width: 0; stroke-dasharray: none; stroke-linecap: butt; stroke-dashoffset: 0; stroke-linejoin: miter; stroke-miterlimit: 4; fill: rgb(210,113,255); fill-rule: nonzero; opacity: 1;" vector-effect="non-scaling-stroke"  transform=" translate(0, 0)" d="M 0 -64.5 C 35.604 -64.5 64.5 -35.604 64.5 0 C 64.5 35.604 35.604 64.5 0 64.5 C -35.604 64.5 -64.5 35.604 -64.5 0 C -64.5 -35.604 -35.604 -64.5 0 -64.5 z" stroke-linecap="round" />
</g>
<g transform="matrix(0.48 0 0 -0.09 161 100)" id="WAlKNNM1Q034IA_XMLh52"  >
<path style="stroke: rgb(214,225,66); stroke-width: 0; stroke-dasharray: none; stroke-linecap: butt; stroke-dashoffset: 0; stroke-linejoin: miter; stroke-miterlimit: 4; fill: rgb(192,58,255); fill-rule: nonzero; opacity: 1;" vector-effect="non-scaling-stroke"  transform=" translate(0, 0)" d="M -67 66.76121 C -67 -7.113069999999993 -55.7712 -67 -41.91977 -67 L 41.91977 -67 L 41.91977 -67 C 55.7712 -67 67 -7.1130700000000004 67 66.76121 L 67 66.99999000000001 L -66.99999 66.99999000000001 z" stroke-linecap="round" />
</g>
<g transform="matrix(0.48 0 0 0.48 145 66)" id="Tl5lIe7orzCrIPhT2S8Fp"  >
<path style="stroke: rgb(192,58,255); stroke-width: 5; stroke-dasharray: none; stroke-linecap: butt; stroke-dashoffset: 0; stroke-linejoin: miter; stroke-miterlimit: 4; fill: none; fill-rule: nonzero; opacity: 1;" vector-effect="non-scaling-stroke"  transform=" translate(0, 0)" d="M -33.68384 62.69565 C 55.20505000000001 -100.55221 30.542970000000004 -57.585629999999995 30.542970000000004 -57.585629999999995" stroke-linecap="round" />
</g>
<g transform="matrix(-0.47 0 0 0.48 176 66.5)" id="PhzXAzZCl1Pmip_vJkLU_"  >
<path style="stroke: rgb(192,58,255); stroke-width: 5; stroke-dasharray: none; stroke-linecap: butt; stroke-dashoffset: 0; stroke-linejoin: miter; stroke-miterlimit: 4; fill: none; fill-rule: nonzero; opacity: 1;" vector-effect="non-scaling-stroke"  transform=" translate(0, 0)" d="M -31.76351 61.77955 C 57.12538000000001 -101.46831 26.761010000000002 -55.943479999999994 26.761010000000002 -55.943479999999994" stroke-linecap="round" />
</g>
<g transform="matrix(0.08 0 0 0.54 98 114)" id="oCpP9Fue63k4noW6bzWa2"  >
<path style="stroke: rgb(217,136,255); stroke-width: 0; stroke-dasharray: none; stroke-linecap: butt; stroke-dashoffset: 0; stroke-linejoin: miter; stroke-miterlimit: 4; fill: rgb(217,136,255); fill-rule: nonzero; opacity: 1;" vector-effect="non-scaling-stroke"  transform=" translate(0, 0)" d="M -121 -112.5559 C -121 -117.21945 -96.42641 -121 -66.11336 -121 L 66.11335 -121 L 66.11335 -121 C 96.42641 -121 120.99999 -117.21945 120.99999 -112.5559 L 120.99999 112.5559 L 120.99999 112.5559 C 120.99999 117.21945 96.4264 121 66.11335 121 L -66.11336 121 L -66.11336 121 C -96.42642000000001 121 -121 117.21945 -121 112.5559 z" stroke-linecap="round" />
</g>
<g transform="matrix(1 0 0 0.14 102.11 49.18)" id="Mi5Q0uh36V0Vw16ti5d6K"  >
<path style="stroke: rgb(214,154,89); stroke-width: 0; stroke-dasharray: none; stroke-linecap: butt; stroke-dashoffset: 0; stroke-linejoin: miter; stroke-miterlimit: 4; fill: rgb(217,136,255); fill-rule: nonzero; opacity: 1;" vector-effect="non-scaling-stroke"  transform=" translate(0, 0)" d="M -63.14046 99.20629 C -63.49172 89.93178 -63.29006 80.03551999999999 -62.58313 71.85567 C -61.8762 63.67582 -60.72671 57.93799 -59.40625 55.997840000000004 L 59.78031 -127.43215000000001 L 59.78031 -127.43215000000001 C 60.71809 -128.89833000000002 61.66789 -125.34297000000001 62.03052 -119.00900000000001 L 62.93164 -103.89823000000001 L 62.93164 -103.89823000000001 C 63.48236 -94.68434000000002 63.42868 -84.20174000000002 62.78517 -75.29833 C 62.14167 -66.39492000000001 60.97518 -59.99533000000001 59.60261 -57.838210000000004 L -56.85916 126.82503 L -56.85916 126.82503 C -59.65921 131.34403 -62.451840000000004 119.06488999999999 -63.14047 99.20629 z" stroke-linecap="round" />
</g>
<g transform="matrix(1 0 0 0.22 98 171.5)" id="ztWYxHvKO3mRYw7giuvEM"  >
<path style="stroke: rgb(34,117,67); stroke-width: 0; stroke-dasharray: none; stroke-linecap: butt; stroke-dashoffset: 0; stroke-linejoin: miter; stroke-miterlimit: 4; fill: rgb(217,136,255); fill-rule: nonzero; opacity: 1;" vector-effect="non-scaling-stroke"  transform=" translate(0, 0)" d="M -38 -38 L 38.00001 -38 L 38.00001 -38 L 38.00001 -38 C 38.00001 3.973640000000003 30.388850000000005 38.00001 21.000010000000003 38.00001 L -20.999989999999997 38.00001 L -20.999989999999997 38.00001 C -30.38883 38.00001 -37.99999 3.9736500000000063 -37.99999 -38 z" stroke-linecap="round" />
</g>
</svg>