<?xml version="1.0" encoding="UTF-8" standalone="no" ?>
<!DOCTYPE svg PUBLIC "-//W3C//DTD SVG 1.1//EN" "http://www.w3.org/Graphics/SVG/1.1/DTD/svg11.dtd">
<svg xmlns="http://www.w3.org/2000/svg" xmlns:xlink="http://www.w3.org/1999/xlink" version="1.1" width="200" height="200" viewBox="0 0 200 200" xml:space="preserve">
<desc>Created with Fabric.js 4.6.0</desc>
<defs>
</defs>
<g transform="matrix(0 0 0 0 51 86)" id="lwcM3aS9ouwR5gxM4ljMA"  >
<path style="stroke: rgb(0,0,0); stroke-width: 1; stroke-dasharray: none; stroke-linecap: butt; stroke-dashoffset: 0; stroke-linejoin: miter; stroke-miterlimit: 4; fill: rgb(255,255,255); fill-opacity: 0; fill-rule: nonzero; opacity: 1;" vector-effect="non-scaling-stroke"  transform=" translate(0, 0)" d="M 0 0" stroke-linecap="round" />
</g>
<g transform="matrix(0 0 0 0 295 222)" id="tmbu-BchtezPs-0GmdKoJ"  >
<path style="stroke: rgb(0,0,0); stroke-width: 1; stroke-dasharray: none; stroke-linecap: butt; stroke-dashoffset: 0; stroke-linejoin: miter; stroke-miterlimit: 4; fill: rgb(255,255,255); fill-opacity: 0; fill-rule: nonzero; opacity: 1;" vector-effect="non-scaling-stroke"  transform=" translate(0, 0)" d="M 0 0" stroke-linecap="round" />
</g>
<g transform="matrix(0 0 0 0 101 136)" id="vq295PR0L9OY5mjGZm_ov"  >
<path style="stroke: rgb(0,0,0); stroke-width: 1; stroke-dasharray: none; stroke-linecap: butt; stroke-dashoffset: 0; stroke-linejoin: miter; stroke-miterlimit: 4; fill: rgb(255,255,255); fill-opacity: 0; fill-rule: nonzero; opacity: 1;" vector-effect="non-scaling-stroke"  transform=" translate(0, 0)" d="M 0 0" stroke-linecap="round" />
</g>
<g transform="matrix(0 0 0 0 345 272)" id="mHVlR-z1aU9wH_agL_h2_"  >
<path style="stroke: rgb(0,0,0); stroke-width: 1; stroke-dasharray: none; stroke-linecap: butt; stroke-dashoffset: 0; stroke-linejoin: miter; stroke-miterlimit: 4; fill: rgb(255,255,255); fill-opacity: 0; fill-rule: nonzero; opacity: 1;" vector-effect="non-scaling-stroke"  transform=" translate(0, 0)" d="M 0 0" stroke-linecap="round" />
</g>
<g transform="matrix(0 0 0 0 52 86)" id="lwcM3aS9ouwR5gxM4ljMA"  >
<path style="stroke: rgb(0,0,0); stroke-width: 1; stroke-dasharray: none; stroke-linecap: butt; stroke-dashoffset: 0; stroke-linejoin: miter; stroke-miterlimit: 4; fill: rgb(255,255,255); fill-opacity: 0; fill-rule: nonzero; opacity: 1;" vector-effect="non-scaling-stroke"  transform=" translate(0, 0)" d="M 0 0" stroke-linecap="round" />
</g>
<g transform="matrix(0 0 0 0 296 222)" id="tmbu-BchtezPs-0GmdKoJ"  >
<path style="stroke: rgb(0,0,0); stroke-width: 1; stroke-dasharray: none; stroke-linecap: butt; stroke-dashoffset: 0; stroke-linejoin: miter; stroke-miterlimit: 4; fill: rgb(255,255,255); fill-opacity: 0; fill-rule: nonzero; opacity: 1;" vector-effect="non-scaling-stroke"  transform=" translate(0, 0)" d="M 0 0" stroke-linecap="round" />
</g>
<g transform="matrix(0.6 0 0 0.58 103.5 66)" id="vA0OW5FJAMCuQdk3ak1-m"  >
<path style="stroke: rgb(192,58,255); stroke-width: 25; stroke-dasharray: none; stroke-linecap: butt; stroke-dashoffset: 0; stroke-linejoin: miter; stroke-miterlimit: 4; fill: rgb(255,255,255); fill-opacity: 0; fill-rule: nonzero; opacity: 1;" vector-effect="non-scaling-stroke"  transform=" translate(0, 0)" d="M -139.87295 -8.53324 C -137.82966 -11.02064 -122.13206 -64.81482 -73.15886 -81.62755999999999 C -24.185660000000006 -98.44030999999998 19.175240000000002 -95.18544999999999 54.2055 -81.62755999999999 C 83.4997 -70.28971999999999 100.69384 -50.58082999999999 122.65089 -6.3156999999999925 C 144.60794 37.94944000000001 139.31217 93.04907 139.31217 93.04907" stroke-linecap="round" />
</g>
<g transform="matrix(0 0 0 0 102 136)" id="vq295PR0L9OY5mjGZm_ov"  >
<path style="stroke: rgb(0,0,0); stroke-width: 1; stroke-dasharray: none; stroke-linecap: butt; stroke-dashoffset: 0; stroke-linejoin: miter; stroke-miterlimit: 4; fill: rgb(255,255,255); fill-opacity: 0; fill-rule: nonzero; opacity: 1;" vector-effect="non-scaling-stroke"  transform=" translate(0, 0)" d="M 0 0" stroke-linecap="round" />
</g>
<g transform="matrix(0 0 0 0 346 272)" id="mHVlR-z1aU9wH_agL_h2_"  >
<path style="stroke: rgb(0,0,0); stroke-width: 1; stroke-dasharray: none; stroke-linecap: butt; stroke-dashoffset: 0; stroke-linejoin: miter; stroke-miterlimit: 4; fill: rgb(255,255,255); fill-opacity: 0; fill-rule: nonzero; opacity: 1;" vector-effect="non-scaling-stroke"  transform=" translate(0, 0)" d="M 0 0" stroke-linecap="round" />
</g>
<g transform="matrix(0.61 0 0 -0.59 26 62)" id="Ueea1FGRwm4W9LP_U625-"  >
<path style="stroke: none; stroke-width: 1; stroke-dasharray: none; stroke-linecap: butt; stroke-dashoffset: 0; stroke-linejoin: miter; stroke-miterlimit: 4; fill: rgb(192,58,255); fill-rule: nonzero; opacity: 1;" vector-effect="non-scaling-stroke"  transform=" translate(0, 0)" d="M 32.99249 -1.0129 L -10.42839 4.13128 L -32.992490000000004 35.7006 L -28.496090000000002 -35.700579999999995 z" stroke-linecap="round" />
</g>
<g transform="matrix(-0.58 0 0 -0.53 94.5 140)" id="3c4-z4mHEMoLE71bDE5pi"  >
<path style="stroke: rgb(192,58,255); stroke-width: 25; stroke-dasharray: none; stroke-linecap: butt; stroke-dashoffset: 0; stroke-linejoin: miter; stroke-miterlimit: 4; fill: rgb(255,255,255); fill-opacity: 0; fill-rule: nonzero; opacity: 1;" vector-effect="non-scaling-stroke"  transform=" translate(0, 0)" d="M -144.77477 -5.87363 C -142.73147999999998 -8.36103 -120.52194999999999 -62.15521 -71.54874999999998 -78.96795 C -22.575549999999986 -95.7807 14.273420000000016 -92.52584 49.303680000000014 -78.96795 C 78.59788000000002 -67.63011 105.44576 -53.83719000000001 127.40281000000002 -9.572050000000004 C 149.35986000000003 34.69309 144.26221 90.38946 144.26221 90.38946" stroke-linecap="round" />
</g>
<g transform="matrix(-0.62 0 0 0.59 171.5 143)" id="5KIAaT-prFMprnPHBnEqX"  >
<path style="stroke: none; stroke-width: 1; stroke-dasharray: none; stroke-linecap: butt; stroke-dashoffset: 0; stroke-linejoin: miter; stroke-miterlimit: 4; fill: rgb(192,58,255); fill-rule: nonzero; opacity: 1;" vector-effect="non-scaling-stroke"  transform=" translate(0, 0)" d="M 32.99249 -1.0129 L -10.42839 4.13128 L -32.992490000000004 35.7006 L -28.496090000000002 -35.700579999999995 z" stroke-linecap="round" />
</g>
</svg>