<?xml version="1.0" encoding="UTF-8" standalone="no" ?>
<!DOCTYPE svg PUBLIC "-//W3C//DTD SVG 1.1//EN" "http://www.w3.org/Graphics/SVG/1.1/DTD/svg11.dtd">
<svg xmlns="http://www.w3.org/2000/svg" xmlns:xlink="http://www.w3.org/1999/xlink" version="1.1" width="30" height="30" viewBox="0 0 30 30" xml:space="preserve">
<desc>Created with Fabric.js 4.6.0</desc>
<defs>
</defs>
<g transform="matrix(0.1 -0.1 0.01 0.01 15 15)" id="1OZZ5G-Tkt6wpyCZKkQ-3"  >
<path style="stroke: rgb(36,110,45); stroke-width: 0; stroke-dasharray: none; stroke-linecap: butt; stroke-dashoffset: 0; stroke-linejoin: miter; stroke-miterlimit: 4; fill: rgb(49,168,247); fill-rule: nonzero; opacity: 1;" vector-effect="non-scaling-stroke"  transform=" translate(0, 0)" d="M -131 -74.7819 C -131 -105.8303 -126.80505 -131 -121.63032 -131 L 121.63031 -131 L 121.63031 -131 C 126.80503999999999 -131 130.99999 -105.8303 130.99999 -74.78190000000001 L 130.99999 74.78189 L 130.99999 74.78189 C 130.99999 105.83029 126.80503999999999 130.99999 121.63031 130.99999 L -121.63032 130.99999 L -121.63032 130.99999 C -126.80505 130.99999 -131 105.83028999999999 -131 74.78189 z" stroke-linecap="round" />
</g>
<g transform="matrix(0.71 -0.71 0.71 0.71 22 22)" id="VMWjIDES-C3iSTvjkzBWB"  >
<path style="stroke: rgb(49,168,247); stroke-width: 2; stroke-dasharray: none; stroke-linecap: butt; stroke-dashoffset: 0; stroke-linejoin: miter; stroke-miterlimit: 4; fill: none; fill-rule: nonzero; opacity: 1;" vector-effect="non-scaling-stroke"  transform=" translate(-2.5, -2.5)" d="M 2.5 0 C 3.88 0 5 1.12 5 2.5 C 5 3.88 3.88 5 2.5 5 C 1.12 5 0 3.88 0 2.5 C 0 1.12 1.12 0 2.5 0 z" stroke-linecap="round" />
</g>
<g transform="matrix(0.71 -0.71 0.71 0.71 8.5 7.5)" id="Czpc9hJH4XRqrVEwlnUn3"  >
<path style="stroke: rgb(49,168,247); stroke-width: 2; stroke-dasharray: none; stroke-linecap: butt; stroke-dashoffset: 0; stroke-linejoin: miter; stroke-miterlimit: 4; fill: none; fill-rule: nonzero; opacity: 1;" vector-effect="non-scaling-stroke"  transform=" translate(-2.5, -2.5)" d="M 2.5 0 C 3.88 0 5 1.12 5 2.5 C 5 3.88 3.88 5 2.5 5 C 1.12 5 0 3.88 0 2.5 C 0 1.12 1.12 0 2.5 0 z" stroke-linecap="round" />
</g>
</svg>