<?xml version="1.0" encoding="UTF-8" standalone="no" ?>
<!DOCTYPE svg PUBLIC "-//W3C//DTD SVG 1.1//EN" "http://www.w3.org/Graphics/SVG/1.1/DTD/svg11.dtd">
<svg xmlns="http://www.w3.org/2000/svg" xmlns:xlink="http://www.w3.org/1999/xlink" version="1.1" width="200" height="200" viewBox="0 0 200 200" xml:space="preserve">
<desc>Created with Fabric.js 4.6.0</desc>
<defs>
</defs>
<g transform="matrix(-1.85 0 0 -1 99.5 74)" id="6Eb7tfMwRHqBFlGNcT7a2"  >
<path style="stroke: rgb(69,225,204); stroke-width: 0; stroke-dasharray: none; stroke-linecap: butt; stroke-dashoffset: 0; stroke-linejoin: miter; stroke-miterlimit: 4; fill: rgb(1,196,96); fill-rule: nonzero; opacity: 1;" vector-effect="non-scaling-stroke"  transform=" translate(0, 0)" d="M -50 -29.32442 C -50 -40.74323 -44.99655 -50 -38.82449 -50 L 39.11995 -50 L 39.11995 -50 C 45.128840000000004 -50 50 -40.98796 50 -29.87105 L 50 29.432869999999998 L 50 29.432869999999998 C 50 40.791779999999996 45.022800000000004 50 38.88311 50 L -38.89913 50 L -38.89913 50 C -45.02997 50 -50 40.80506 -50 29.46252 z" stroke-linecap="round" />
</g>
<g transform="matrix(0 0 0 0 27 116)" id="ZvO0saETjE804u6jXfFr7"  >
<path style="stroke: rgb(0,0,0); stroke-width: 1; stroke-dasharray: none; stroke-linecap: butt; stroke-dashoffset: 0; stroke-linejoin: miter; stroke-miterlimit: 4; fill: rgb(255,255,255); fill-opacity: 0; fill-rule: nonzero; opacity: 1;" vector-effect="non-scaling-stroke"  transform=" translate(0, 0)" d="M 0 0" stroke-linecap="round" />
</g>
<g transform="matrix(0 0 0 0 27 159)" id="jS-6PCGRGxq0FXX4j3iSH"  >
<path style="stroke: rgb(0,0,0); stroke-width: 1; stroke-dasharray: none; stroke-linecap: butt; stroke-dashoffset: 0; stroke-linejoin: miter; stroke-miterlimit: 4; fill: rgb(255,255,255); fill-opacity: 0; fill-rule: nonzero; opacity: 1;" vector-effect="non-scaling-stroke"  transform=" translate(0, 0)" d="M 0 0 z" stroke-linecap="round" />
</g>
<g transform="matrix(0.66 0 0 0.82 66.5 146.5)" id="qlEfCxYgWNcQvTPPvbJb2"  >
<path style="stroke: rgb(53,237,53); stroke-width: 0; stroke-dasharray: none; stroke-linecap: butt; stroke-dashoffset: 0; stroke-linejoin: miter; stroke-miterlimit: 4; fill: rgb(1,196,96); fill-rule: nonzero; opacity: 1;" vector-effect="non-scaling-stroke"  transform=" translate(0, 0)" d="M -21.95125 -28.5694 C -21.95125 -28.5694 -51.28936 27.14598 -41.050070000000005 28.55321 C -33.29912 29.61845 37.619069999999994 -22.171300000000002 43.219049999999996 -28.5694" stroke-linecap="round" />
</g>
<g transform="matrix(0.7 0 0 0.7 87 74)" id="oN6G6RCaSFP4XfjBocvqY"  >
<path style="stroke: rgb(171,14,222); stroke-width: 0; stroke-dasharray: none; stroke-linecap: butt; stroke-dashoffset: 0; stroke-linejoin: miter; stroke-miterlimit: 4; fill: rgb(255,255,255); fill-rule: nonzero; opacity: 1;" vector-effect="non-scaling-stroke"  transform=" translate(0, 0)" d="M 0 -18.5 C 10.212 -18.5 18.5 -10.212 18.5 0 C 18.5 10.212 10.212 18.5 0 18.5 C -10.212 18.5 -18.5 10.212 -18.5 0 C -18.5 -10.212 -10.212 -18.5 0 -18.5 z" stroke-linecap="round" />
</g>
<g transform="matrix(0.7 0 0 0.7 125 74)" id="XghJ8ym08KgsPuPm6fJsz"  >
<path style="stroke: rgb(171,14,222); stroke-width: 0; stroke-dasharray: none; stroke-linecap: butt; stroke-dashoffset: 0; stroke-linejoin: miter; stroke-miterlimit: 4; fill: rgb(255,255,255); fill-rule: nonzero; opacity: 1;" vector-effect="non-scaling-stroke"  transform=" translate(0, 0)" d="M 0 -18.5 C 10.212 -18.5 18.5 -10.212 18.5 0 C 18.5 10.212 10.212 18.5 0 18.5 C -10.212 18.5 -18.5 10.212 -18.5 0 C -18.5 -10.212 -10.212 -18.5 0 -18.5 z" stroke-linecap="round" />
</g>
<g transform="matrix(0.7 0 0 0.7 164 74)" id="ex7nLZAchnCzoZ2cR0fEj"  >
<path style="stroke: rgb(171,14,222); stroke-width: 0; stroke-dasharray: none; stroke-linecap: butt; stroke-dashoffset: 0; stroke-linejoin: miter; stroke-miterlimit: 4; fill: rgb(255,255,255); fill-rule: nonzero; opacity: 1;" vector-effect="non-scaling-stroke"  transform=" translate(0, 0)" d="M 0 -18.5 C 10.212 -18.5 18.5 -10.212 18.5 0 C 18.5 10.212 10.212 18.5 0 18.5 C -10.212 18.5 -18.5 10.212 -18.5 0 C -18.5 -10.212 -10.212 -18.5 0 -18.5 z" stroke-linecap="round" />
</g>
<g transform="matrix(1 0 0 1.01 56.5 74)" id="MJ2DDmk2GW3lfI3YCLeSn"  >
<path style="stroke: none; stroke-width: 1; stroke-dasharray: none; stroke-linecap: butt; stroke-dashoffset: 0; stroke-linejoin: miter; stroke-miterlimit: 4; fill: rgb(179,181,179); fill-rule: nonzero; opacity: 1;" vector-effect="non-scaling-stroke"  transform=" translate(0, 0)" d="M -7.41555 21.79067 L -12.44338 19.52188 L 5.420140000000002 1.9934100000000008 L -12.44338 -21.79067 L -6.779509999999999 -21.79067 L 12.4434 1.9934100000000008 z" stroke-linecap="round" />
</g>
</svg>