<?xml version="1.0" encoding="UTF-8"?>
<svg xmlns="http://www.w3.org/2000/svg" xmlns:xlink="http://www.w3.org/1999/xlink" width="30px" height="30px" viewBox="0 0 30 30" version="1.1">
<g id="surface1">
<path style=" stroke:none;fill-rule:nonzero;fill:rgb(19.215686%,65.882353%,96.862745%);fill-opacity:1;" d="M -0.207031 13.679688 C -0.207031 13.066406 0.285156 12.566406 0.894531 12.566406 L 28.957031 12.566406 C 29.5625 12.566406 30.054688 13.066406 30.054688 13.679688 L 30.054688 16.171875 C 30.054688 16.785156 29.5625 17.28125 28.957031 17.28125 L 0.894531 17.28125 C 0.285156 17.28125 -0.207031 16.785156 -0.207031 16.171875 Z M -0.207031 13.679688 "/>
<path style=" stroke:none;fill-rule:nonzero;fill:rgb(19.215686%,65.882353%,96.862745%);fill-opacity:1;" d="M 15 20.707031 C 16.320312 20.707031 17.390625 21.78125 17.390625 23.101562 C 17.390625 24.421875 16.320312 25.492188 15 25.492188 C 13.679688 25.492188 12.609375 24.421875 12.609375 23.101562 C 12.609375 21.78125 13.679688 20.707031 15 20.707031 Z M 15 20.707031 "/>
<path style=" stroke:none;fill-rule:nonzero;fill:rgb(19.215686%,65.882353%,96.862745%);fill-opacity:1;" d="M 15 4.058594 C 16.320312 4.058594 17.390625 5.128906 17.390625 6.449219 C 17.390625 7.769531 16.320312 8.84375 15 8.84375 C 13.679688 8.84375 12.609375 7.769531 12.609375 6.449219 C 12.609375 5.128906 13.679688 4.058594 15 4.058594 Z M 15 4.058594 "/>
</g>
</svg>
