<?xml version="1.0" encoding="UTF-8"?>
<svg xmlns="http://www.w3.org/2000/svg" xmlns:xlink="http://www.w3.org/1999/xlink" width="30px" height="30px" viewBox="0 0 30 30" version="1.1">
<g id="surface1">
<path style=" stroke:none;fill-rule:nonzero;fill:rgb(19.215686%,65.882353%,96.862745%);fill-opacity:1;" d="M 0.0195312 9.179688 C 0.0195312 8.566406 0.511719 8.066406 1.121094 8.066406 L 29.179688 8.066406 C 29.789062 8.066406 30.28125 8.566406 30.28125 9.179688 L 30.28125 11.671875 C 30.28125 12.285156 29.789062 12.78125 29.179688 12.78125 L 1.121094 12.78125 C 0.511719 12.78125 0.0195312 12.285156 0.0195312 11.671875 Z M 0.0195312 9.179688 "/>
<path style=" stroke:none;fill-rule:nonzero;fill:rgb(19.215686%,65.882353%,96.862745%);fill-opacity:1;" d="M -0.128906 17.878906 C -0.128906 17.265625 0.363281 16.765625 0.96875 16.765625 L 29.03125 16.765625 C 29.636719 16.765625 30.128906 17.265625 30.128906 17.878906 L 30.128906 20.371094 C 30.128906 20.984375 29.636719 21.484375 29.03125 21.484375 L 0.96875 21.484375 C 0.363281 21.484375 -0.128906 20.984375 -0.128906 20.371094 Z M -0.128906 17.878906 "/>
</g>
</svg>
