<?xml version="1.0" encoding="UTF-8"?>
<svg xmlns="http://www.w3.org/2000/svg" xmlns:xlink="http://www.w3.org/1999/xlink" width="30px" height="30px" viewBox="0 0 30 30" version="1.1">
<g id="surface1">
<path style=" stroke:none;fill-rule:nonzero;fill:rgb(19.215686%,65.882353%,96.862745%);fill-opacity:1;" d="M 1.183594 3.105469 C 1.367188 2.605469 1.925781 2.351562 2.4375 2.539062 L 26.132812 11.289062 C 26.644531 11.476562 26.910156 12.035156 26.726562 12.539062 L 25.816406 15.042969 C 25.632812 15.546875 25.074219 15.800781 24.5625 15.609375 L 0.867188 6.863281 C 0.355469 6.671875 0.0898438 6.113281 0.273438 5.613281 Z M 1.183594 3.105469 "/>
<path style=" stroke:none;fill-rule:nonzero;fill:rgb(19.215686%,65.882353%,96.862745%);fill-opacity:1;" d="M 0.808594 24.945312 C 0.992188 25.445312 1.550781 25.699219 2.0625 25.511719 L 25.757812 16.761719 C 26.269531 16.574219 26.535156 16.015625 26.351562 15.511719 L 25.441406 13.003906 C 25.257812 12.503906 24.699219 12.25 24.1875 12.4375 L 0.492188 21.1875 C -0.0195312 21.375 -0.285156 21.9375 -0.101562 22.4375 Z M 0.808594 24.945312 "/>
<path style=" stroke:none;fill-rule:nonzero;fill:rgb(19.215686%,65.882353%,96.862745%);fill-opacity:1;" d="M 25.125 11.242188 C 26.660156 11.242188 27.90625 12.488281 27.90625 14.023438 C 27.90625 15.5625 26.660156 16.808594 25.125 16.808594 C 23.589844 16.808594 22.34375 15.5625 22.34375 14.023438 C 22.34375 12.488281 23.589844 11.242188 25.125 11.242188 Z M 25.125 11.242188 "/>
</g>
</svg>
