<?xml version="1.0" encoding="UTF-8"?>
<svg xmlns="http://www.w3.org/2000/svg" xmlns:xlink="http://www.w3.org/1999/xlink" width="30px" height="30px" viewBox="0 0 30 30" version="1.1">
<g id="surface1">
<path style=" stroke:none;fill-rule:nonzero;fill:rgb(82.352941%,44.313725%,100%);fill-opacity:1;" d="M 6.898438 10.804688 C 9.464844 10.804688 11.542969 12.886719 11.542969 15.449219 C 11.542969 18.011719 9.464844 20.09375 6.898438 20.09375 C 4.335938 20.09375 2.257812 18.011719 2.257812 15.449219 C 2.257812 12.886719 4.335938 10.804688 6.898438 10.804688 Z M 6.898438 10.804688 "/>
<path style=" stroke:none;fill-rule:nonzero;fill:rgb(75.294118%,22.745098%,100%);fill-opacity:1;" d="M 2.226562 18.148438 C 2.226562 19.144531 3.035156 19.953125 4.03125 19.953125 L 10.066406 19.953125 C 11.066406 19.953125 11.875 19.144531 11.875 18.148438 L 11.875 18.144531 L 2.226562 18.144531 Z M 2.226562 18.148438 "/>
<path style="fill:none;stroke-width:5;stroke-linecap:butt;stroke-linejoin:miter;stroke:rgb(75.294118%,22.745098%,100%);stroke-opacity:1;stroke-miterlimit:4;" d="M -33.680556 62.706163 C 55.186632 -100.542535 30.555556 -57.573785 30.555556 -57.573785 " transform="matrix(0.072,0,0,0.072,4.8,13.95)"/>
<path style="fill:none;stroke-width:5;stroke-linecap:butt;stroke-linejoin:miter;stroke:rgb(75.294118%,22.745098%,100%);stroke-opacity:1;stroke-miterlimit:4;" d="M -31.759752 61.794705 C 57.114362 -101.453993 26.750887 -55.93533 26.750887 -55.93533 " transform="matrix(-0.0705,0,0,0.072,9.3,13.875)"/>
<path style=" stroke:none;fill-rule:nonzero;fill:rgb(82.352941%,44.313725%,100%);fill-opacity:1;" d="M 24 8.269531 C 25.976562 8.269531 27.578125 9.875 27.578125 11.851562 C 27.578125 13.824219 25.976562 15.429688 24 15.429688 C 22.023438 15.429688 20.421875 13.824219 20.421875 11.851562 C 20.421875 9.875 22.023438 8.269531 24 8.269531 Z M 24 8.269531 "/>
<path style=" stroke:none;fill-rule:nonzero;fill:rgb(75.294118%,22.745098%,100%);fill-opacity:1;" d="M 19.324219 14.097656 C 19.324219 15.097656 20.132812 15.90625 21.132812 15.90625 L 27.167969 15.90625 C 28.164062 15.90625 28.972656 15.097656 28.972656 14.097656 L 28.972656 14.09375 L 19.324219 14.09375 Z M 19.324219 14.097656 "/>
<path style="fill:none;stroke-width:5;stroke-linecap:butt;stroke-linejoin:miter;stroke:rgb(75.294118%,22.745098%,100%);stroke-opacity:1;stroke-miterlimit:4;" d="M -33.691406 62.695312 C 55.230035 -100.553385 30.544705 -57.584635 30.544705 -57.584635 " transform="matrix(0.072,0,0,0.072,21.75,9.9)"/>
<path style="fill:none;stroke-width:5;stroke-linecap:butt;stroke-linejoin:miter;stroke:rgb(75.294118%,22.745098%,100%);stroke-opacity:1;stroke-miterlimit:4;" d="M -31.781915 61.762153 C 57.147606 -101.486545 26.784131 -55.967882 26.784131 -55.967882 " transform="matrix(-0.0705,0,0,0.072,26.4,9.975)"/>
<path style=" stroke:none;fill-rule:nonzero;fill:rgb(85.098039%,53.333333%,100%);fill-opacity:1;" d="M 13.246094 7.984375 C 13.246094 7.605469 13.542969 7.300781 13.90625 7.300781 L 15.492188 7.300781 C 15.855469 7.300781 16.152344 7.605469 16.152344 7.984375 L 16.152344 26.21875 C 16.152344 26.59375 15.855469 26.902344 15.492188 26.902344 L 13.90625 26.902344 C 13.542969 26.902344 13.246094 26.59375 13.246094 26.21875 Z M 13.246094 7.984375 "/>
<path style=" stroke:none;fill-rule:nonzero;fill:rgb(85.098039%,53.333333%,100%);fill-opacity:1;" d="M 5.84375 9.460938 C 5.792969 9.265625 5.824219 9.058594 5.929688 8.886719 C 6.035156 8.714844 6.207031 8.59375 6.40625 8.554688 L 24.285156 4.699219 C 24.425781 4.671875 24.566406 4.746094 24.621094 4.878906 L 24.757812 5.195312 C 24.839844 5.386719 24.832031 5.609375 24.734375 5.796875 C 24.636719 5.984375 24.460938 6.117188 24.257812 6.164062 L 6.789062 10.039062 C 6.367188 10.136719 5.949219 9.878906 5.84375 9.460938 Z M 5.84375 9.460938 "/>
<path style=" stroke:none;fill-rule:nonzero;fill:rgb(85.098039%,53.333333%,100%);fill-opacity:1;" d="M 9 24.472656 L 20.398438 24.472656 C 20.398438 25.855469 19.257812 26.980469 17.851562 26.980469 L 11.550781 26.980469 C 10.140625 26.980469 9 25.855469 9 24.472656 Z M 9 24.472656 "/>
</g>
</svg>
