<?xml version="1.0" encoding="UTF-8"?>
<svg xmlns="http://www.w3.org/2000/svg" xmlns:xlink="http://www.w3.org/1999/xlink" width="30px" height="30px" viewBox="0 0 30 30" version="1.1">
<g id="surface1">
<path style=" stroke:none;fill-rule:nonzero;fill:rgb(19.215686%,65.882353%,96.862745%);fill-opacity:1;" d="M -0.207031 13.679688 C -0.207031 13.066406 0.285156 12.566406 0.894531 12.566406 L 28.957031 12.566406 C 29.5625 12.566406 30.054688 13.066406 30.054688 13.679688 L 30.054688 16.171875 C 30.054688 16.785156 29.5625 17.28125 28.957031 17.28125 L 0.894531 17.28125 C 0.285156 17.28125 -0.207031 16.785156 -0.207031 16.171875 Z M -0.207031 13.679688 "/>
<path style=" stroke:none;fill-rule:nonzero;fill:rgb(19.215686%,65.882353%,96.862745%);fill-opacity:1;" d="M 13.679688 30.054688 C 13.066406 30.054688 12.566406 29.5625 12.566406 28.957031 L 12.566406 0.894531 C 12.566406 0.285156 13.066406 -0.207031 13.679688 -0.207031 L 16.171875 -0.207031 C 16.785156 -0.207031 17.28125 0.285156 17.28125 0.894531 L 17.28125 28.957031 C 17.28125 29.5625 16.785156 30.054688 16.171875 30.054688 Z M 13.679688 30.054688 "/>
</g>
</svg>
