<?xml version="1.0" encoding="UTF-8"?>
<svg xmlns="http://www.w3.org/2000/svg" xmlns:xlink="http://www.w3.org/1999/xlink" width="30px" height="30px" viewBox="0 0 30 30" version="1.1">
<g id="surface1">
<path style=" stroke:none;fill-rule:nonzero;fill:rgb(0.392157%,76.862745%,37.647059%);fill-opacity:1;" d="M 28.800781 15.5 C 28.800781 17.210938 27.410156 18.601562 25.699219 18.601562 L 4.070312 18.601562 C 2.402344 18.601562 1.050781 17.25 1.050781 15.582031 L 1.050781 6.683594 C 1.050781 4.980469 2.429688 3.601562 4.136719 3.601562 L 25.71875 3.601562 C 27.421875 3.601562 28.800781 4.980469 28.800781 6.679688 Z M 28.800781 15.5 "/>
<path style="fill:none;stroke-width:1;stroke-linecap:butt;stroke-linejoin:miter;stroke:rgb(0%,0%,0%);stroke-opacity:1;stroke-miterlimit:4;" d="M 0 0 Z M 0 0 " transform="matrix(0.15,0,0,0.15,0,0)"/>
<path style=" stroke:none;fill-rule:nonzero;fill:rgb(0.392157%,76.862745%,37.647059%);fill-opacity:1;" d="M 7.800781 18.460938 C 7.800781 18.460938 4.898438 25.3125 5.910156 25.488281 C 6.679688 25.617188 13.699219 19.246094 14.253906 18.460938 "/>
<path style=" stroke:none;fill-rule:nonzero;fill:rgb(100%,100%,100%);fill-opacity:1;" d="M 13.050781 9.15625 C 14.121094 9.15625 14.992188 10.027344 14.992188 11.101562 C 14.992188 12.171875 14.121094 13.042969 13.050781 13.042969 C 11.976562 13.042969 11.109375 12.171875 11.109375 11.101562 C 11.109375 10.027344 11.976562 9.15625 13.050781 9.15625 Z M 13.050781 9.15625 "/>
<path style=" stroke:none;fill-rule:nonzero;fill:rgb(100%,100%,100%);fill-opacity:1;" d="M 18.75 9.15625 C 19.820312 9.15625 20.691406 10.027344 20.691406 11.101562 C 20.691406 12.171875 19.820312 13.042969 18.75 13.042969 C 17.679688 13.042969 16.808594 12.171875 16.808594 11.101562 C 16.808594 10.027344 17.679688 9.15625 18.75 9.15625 Z M 18.75 9.15625 "/>
<path style=" stroke:none;fill-rule:nonzero;fill:rgb(100%,100%,100%);fill-opacity:1;" d="M 24.601562 9.15625 C 25.671875 9.15625 26.542969 10.027344 26.542969 11.101562 C 26.542969 12.171875 25.671875 13.042969 24.601562 13.042969 C 23.527344 13.042969 22.65625 12.171875 22.65625 11.101562 C 22.65625 10.027344 23.527344 9.15625 24.601562 9.15625 Z M 24.601562 9.15625 "/>
<path style=" stroke:none;fill-rule:nonzero;fill:rgb(70.196078%,70.980392%,70.196078%);fill-opacity:1;" d="M 7.363281 14.402344 L 6.609375 14.058594 L 9.289062 11.402344 L 6.609375 7.796875 L 7.457031 7.796875 L 10.339844 11.402344 Z M 7.363281 14.402344 "/>
</g>
</svg>
