<?xml version="1.0" encoding="UTF-8"?>
<svg xmlns="http://www.w3.org/2000/svg" xmlns:xlink="http://www.w3.org/1999/xlink" width="30px" height="30px" viewBox="0 0 30 30" version="1.1">
<g id="surface1">
<path style=" stroke:none;fill-rule:nonzero;fill:rgb(19.215686%,65.882353%,96.862745%);fill-opacity:1;" d="M 26.300781 3.105469 C 26.117188 2.605469 25.558594 2.351562 25.046875 2.539062 L 1.351562 11.289062 C 0.839844 11.476562 0.574219 12.035156 0.757812 12.539062 L 1.667969 15.042969 C 1.851562 15.546875 2.410156 15.800781 2.921875 15.609375 L 26.617188 6.863281 C 27.128906 6.671875 27.394531 6.113281 27.210938 5.613281 Z M 26.300781 3.105469 "/>
<path style=" stroke:none;fill-rule:nonzero;fill:rgb(19.215686%,65.882353%,96.862745%);fill-opacity:1;" d="M 26.675781 24.945312 C 26.492188 25.445312 25.933594 25.699219 25.421875 25.511719 L 1.726562 16.761719 C 1.214844 16.574219 0.949219 16.015625 1.132812 15.511719 L 2.042969 13.003906 C 2.226562 12.503906 2.785156 12.25 3.296875 12.4375 L 26.992188 21.1875 C 27.503906 21.375 27.769531 21.9375 27.585938 22.4375 Z M 26.675781 24.945312 "/>
<path style=" stroke:none;fill-rule:nonzero;fill:rgb(19.215686%,65.882353%,96.862745%);fill-opacity:1;" d="M 2.359375 11.242188 C 0.824219 11.242188 -0.421875 12.488281 -0.421875 14.023438 C -0.421875 15.5625 0.824219 16.808594 2.359375 16.808594 C 3.894531 16.808594 5.140625 15.5625 5.140625 14.023438 C 5.140625 12.488281 3.894531 11.242188 2.359375 11.242188 Z M 2.359375 11.242188 "/>
</g>
</svg>
