<?xml version="1.0" encoding="UTF-8" standalone="no" ?>
<!DOCTYPE svg PUBLIC "-//W3C//DTD SVG 1.1//EN" "http://www.w3.org/Graphics/SVG/1.1/DTD/svg11.dtd">
<svg xmlns="http://www.w3.org/2000/svg" xmlns:xlink="http://www.w3.org/1999/xlink" version="1.1" width="200" height="200" viewBox="0 0 200 200" xml:space="preserve">
<desc>Created with Fabric.js 4.6.0</desc>
<defs>
</defs>
<g transform="matrix(2.19 0 0 1.91 100 102.61)" id="xPhgQVnCuN2FaVUbwoSm6"  >
<path style="stroke: rgb(49,239,247); stroke-width: 0.5; stroke-dasharray: none; stroke-linecap: butt; stroke-dashoffset: 0; stroke-linejoin: miter; stroke-miterlimit: 4; fill: rgb(97,96,96); fill-rule: nonzero; opacity: 1;" vector-effect="non-scaling-stroke"  transform=" translate(0, 0)" d="M -45.5 -40.47439 C -45.5 -43.24996 -43.53548 -45.5 -41.11213 -45.5 L 40.82014 -45.5 L 40.82014 -45.5 C 43.40476 -45.5 45.5 -43.100229999999996 45.5 -40.13997 L 45.5 39.500260000000004 L 45.5 39.500260000000004 C 45.5 42.81382000000001 43.15469 45.50000000000001 40.26161 45.50000000000001 L -41.11482 45.50000000000001 L -41.11482 45.50000000000001 C -43.53669 45.50000000000001 -45.5 43.251340000000006 -45.5 40.47748000000001 z" stroke-linecap="round" />
</g>
<g transform="matrix(1.99 0 0 1.6 100 109.45)" id="WMJkXYf50gqLSgIdc7e4l"  >
<path style="stroke: rgb(49,239,247); stroke-width: 0.5; stroke-dasharray: none; stroke-linecap: butt; stroke-dashoffset: 0; stroke-linejoin: miter; stroke-miterlimit: 4; fill: rgb(0,0,0); fill-rule: nonzero; opacity: 1;" vector-effect="non-scaling-stroke"  transform=" translate(0, 0)" d="M -50 -50 L 50 -50 L 50 43.213840000000005 L 50 43.213840000000005 C 50 46.96173 47.555930000000004 50.00000000000001 44.54102 50.00000000000001 C 14.775060000000003 50.00000000000001 -45.65886999999999 50.00000000000001 -45.65886999999999 50.00000000000001 C -46.870529999999995 50.00000000000001 -47.90492999999999 49.429640000000006 -48.754349999999995 48.29271000000001 C -49.585679999999996 47.179990000000004 -50.000009999999996 45.84832000000001 -50.000009999999996 44.28797000000001 z" stroke-linecap="round" />
</g>
<g transform="matrix(0.55 0 0 0.55 163.36 22.85)" id="2zE9ZwdbF1FqPocX05bLd"  >
<path style="stroke: rgb(0,0,0); stroke-width: 0; stroke-dasharray: none; stroke-linecap: butt; stroke-dashoffset: 0; stroke-linejoin: miter; stroke-miterlimit: 4; fill: rgb(220,255,159); fill-rule: nonzero; opacity: 1;" vector-effect="non-scaling-stroke"  transform=" translate(0, 0)" d="M 0 -11.5 C 6.348 -11.5 11.5 -6.348 11.5 0 C 11.5 6.348 6.348 11.5 0 11.5 C -6.348 11.5 -11.5 6.348 -11.5 0 C -11.5 -6.348 -6.348 -11.5 0 -11.5 z" stroke-linecap="round" />
</g>
<g transform="matrix(0.58 0 0 0.58 184.76 22.41)" id="uvAV47w2w_bLhcGva_5qd"  >
<path style="stroke: rgb(0,0,0); stroke-width: 0; stroke-dasharray: none; stroke-linecap: butt; stroke-dashoffset: 0; stroke-linejoin: miter; stroke-miterlimit: 4; fill: rgb(255,144,144); fill-rule: nonzero; opacity: 1;" vector-effect="non-scaling-stroke"  transform=" translate(0, 0)" d="M 0 -11.5 C 6.348 -11.5 11.5 -6.348 11.5 0 C 11.5 6.348 6.348 11.5 0 11.5 C -6.348 11.5 -11.5 6.348 -11.5 0 C -11.5 -6.348 -6.348 -11.5 0 -11.5 z" stroke-linecap="round" />
</g>
<g transform="matrix(0.52 0 0 0.52 184.76 22.85)" id="G6TkeLWgOqTsVSEW-rU4H"  >
<path style="stroke: rgb(0,0,0); stroke-width: 0.7; stroke-dasharray: none; stroke-linecap: butt; stroke-dashoffset: 0; stroke-linejoin: miter; stroke-miterlimit: 4; fill: rgb(255,255,255); fill-opacity: 0; fill-rule: nonzero; opacity: 1;" vector-effect="non-scaling-stroke"  transform=" translate(0, 0)" d="M -0.01377 0.62643 L -7.50033 7.09238 L -0.01377000000000006 0.62643 L -7.50033 -7.09239 L -0.01377000000000006 0.62643 L 7.50033 -7.09239 L -0.01377000000000006 0.62643 L 7.50033 7.09238 z" stroke-linecap="round" />
</g>
<g transform="matrix(0.25 0 0 0.24 162.85 22.41)" id="yXx1fdqg5ibP8Tmun-ax3"  >
<path style="stroke: rgb(0,0,0); stroke-width: 0.5; stroke-dasharray: none; stroke-linecap: butt; stroke-dashoffset: 0; stroke-linejoin: miter; stroke-miterlimit: 4; fill: rgb(255,255,255); fill-opacity: 0; fill-rule: nonzero; opacity: 1;" vector-effect="non-scaling-stroke"  transform=" translate(0, 0)" d="M -12.38925 8.26809 L -12.38925 -8.26809 L 12.38925 -8.26809 L 12.38925 8.26809 z" stroke-linecap="round" />
</g>
<g transform="matrix(0.6 0 0 0.6 140.89 22.51)" id="zT2y4qOKiJvb_FFTdYZ_f"  >
<path style="stroke: rgb(0,0,0); stroke-width: 0; stroke-dasharray: none; stroke-linecap: butt; stroke-dashoffset: 0; stroke-linejoin: miter; stroke-miterlimit: 4; fill: rgb(255,216,144); fill-rule: nonzero; opacity: 1;" vector-effect="non-scaling-stroke"  transform=" translate(0, 0)" d="M 0 -11.5 C 6.348 -11.5 11.5 -6.348 11.5 0 C 11.5 6.348 6.348 11.5 0 11.5 C -6.348 11.5 -11.5 6.348 -11.5 0 C -11.5 -6.348 -6.348 -11.5 0 -11.5 z" stroke-linecap="round" />
</g>
<g transform="matrix(0.2 0 0 0.2 140.89 22.85)" id="NPZnVv_UJjnRQM6wcxLHL"  >
<path style="stroke: rgb(0,0,0); stroke-width: 0.5; stroke-dasharray: none; stroke-linecap: butt; stroke-dashoffset: 0; stroke-linejoin: miter; stroke-miterlimit: 4; fill: rgb(255,255,255); fill-opacity: 0; fill-rule: nonzero; opacity: 1;" vector-effect="non-scaling-stroke"  transform=" translate(0, 0)" d="M -24.56829 0 L 24.568279999999998 0 z" stroke-linecap="round" />
</g>
<g transform="matrix(1.61 0 0 0.79 60.1 134.16)" id="USKmxi6uvTWGppZhOH4IL"  >
<path style="stroke: rgb(0,0,0); stroke-width: 0; stroke-dasharray: none; stroke-linecap: butt; stroke-dashoffset: 0; stroke-linejoin: miter; stroke-miterlimit: 4; fill: rgb(0,26,255); fill-rule: nonzero; opacity: 1;" vector-effect="non-scaling-stroke"  transform=" translate(0, 0)" d="M -18.5 -18.5 L 18.5 -18.5 L 18.5 18.5 L -18.5 18.5 z" stroke-linecap="round" />
</g>
<g transform="matrix(1.37 0 0 1.37 157.04 104.72)" id="C1gZc2s7L2jZzSRJpopVA"  >
<path style="stroke: rgb(0,0,0); stroke-width: 0; stroke-dasharray: none; stroke-linecap: butt; stroke-dashoffset: 0; stroke-linejoin: miter; stroke-miterlimit: 4; fill: rgb(255,0,0); fill-rule: nonzero; opacity: 1;" vector-effect="non-scaling-stroke"  transform=" translate(0, 0)" d="M 0 -13.5 C 7.452 -13.5 13.5 -7.452 13.5 0 C 13.5 7.452 7.452 13.5 0 13.5 C -7.452 13.5 -13.5 7.452 -13.5 0 C -13.5 -7.452 -7.452 -13.5 0 -13.5 z" stroke-linecap="round" />
</g>
<g transform="matrix(0.58 0 0 0.58 89.75 65.83)" id="gVxqMsW685NthVRmga0nm"  >
<path style="stroke: none; stroke-width: 1; stroke-dasharray: none; stroke-linecap: butt; stroke-dashoffset: 0; stroke-linejoin: miter; stroke-miterlimit: 4; fill: rgb(249,255,0); fill-rule: nonzero; opacity: 1;" vector-effect="non-scaling-stroke"  transform=" translate(-40, -40)" d="M 60 40 L 80 80 L 40 80 L 0 80 L 20 40 L 40 0 L 60 40 z" stroke-linecap="round" />
</g>
<g transform="matrix(0.18 0 0 0.17 165.38 24.39)" id="_Ku70kUhImRPMWVYJCOYz"  >
<path style="stroke: rgb(0,0,0); stroke-width: 0.5; stroke-dasharray: none; stroke-linecap: butt; stroke-dashoffset: 0; stroke-linejoin: miter; stroke-miterlimit: 4; fill: rgb(255,255,255); fill-opacity: 0; fill-rule: nonzero; opacity: 1;" vector-effect="non-scaling-stroke"  transform=" translate(0, 0)" d="M -12.38925 8.26809 L -12.38925 -8.26809 L 12.38925 -8.26809 L 12.38925 8.26809 z" stroke-linecap="round" />
</g>
</svg>