<?xml version="1.0" encoding="UTF-8"?>
<svg xmlns="http://www.w3.org/2000/svg" xmlns:xlink="http://www.w3.org/1999/xlink" width="30px" height="30px" viewBox="0 0 30 30" version="1.1">
<g id="surface1">
<path style=" stroke:none;fill-rule:nonzero;fill:rgb(19.215686%,65.882353%,96.862745%);fill-opacity:1;" d="M 5.144531 3.484375 C 5.554688 3.074219 6.230469 3.085938 6.65625 3.511719 L 26.335938 23.191406 C 26.761719 23.617188 26.777344 24.296875 26.367188 24.707031 L 24.707031 26.367188 C 24.296875 26.777344 23.617188 26.761719 23.191406 26.335938 L 3.511719 6.65625 C 3.085938 6.230469 3.074219 5.554688 3.484375 5.144531 Z M 5.144531 3.484375 "/>
<path style=" stroke:none;fill-rule:nonzero;fill:rgb(19.215686%,65.882353%,96.862745%);fill-opacity:1;" d="M 3.484375 24.707031 C 3.074219 24.296875 3.085938 23.617188 3.511719 23.191406 L 23.191406 3.511719 C 23.617188 3.085938 24.296875 3.074219 24.707031 3.484375 L 26.367188 5.144531 C 26.777344 5.554688 26.761719 6.230469 26.335938 6.65625 L 6.65625 26.335938 C 6.230469 26.761719 5.554688 26.777344 5.144531 26.367188 Z M 3.484375 24.707031 "/>
</g>
</svg>
